<?xml version="1.0" standalone="no"?>
<!DOCTYPE svg PUBLIC "-//W3C//DTD SVG 20010904//EN"
 "http://www.w3.org/TR/2001/REC-SVG-20010904/DTD/svg10.dtd">
<svg version="1.0" xmlns="http://www.w3.org/2000/svg"
 width="400.000000pt" height="400.000000pt" viewBox="0 0 400.000000 400.000000"
 preserveAspectRatio="xMidYMid meet">
<metadata>
Created by potrace 1.14, written by Peter Selinger 2001-2017
</metadata>
<g transform="translate(0.000000,400.000000) scale(0.100000,-0.100000)"
fill="#000000" stroke="none">
<path d="M83 2979 c-23 -11 -52 -36 -63 -54 -20 -32 -20 -46 -20 -926 0 -879
0 -895 20 -927 12 -19 38 -41 63 -52 41 -19 90 -20 1912 -20 l1871 0 44 23
c33 16 51 34 68 67 l22 44 0 866 0 866 -23 44 c-15 31 -35 51 -66 67 l-44 23
-1871 0 -1871 0 -42 -21z m3775 -121 c17 -17 17 -1699 0 -1716 -17 -17 -3709
-17 -3726 0 -17 17 -17 1699 0 1716 17 17 3709 17 3726 0z"/>
<path d="M684 2655 c-9 -50 -1 -160 14 -178 7 -8 219 -113 471 -233 253 -120
458 -221 456 -224 -2 -4 -212 -107 -466 -231 -379 -184 -463 -228 -471 -249
-12 -32 -6 -176 8 -190 15 -15 1148 550 1164 579 13 25 13 147 0 172 -10 17
-1134 589 -1160 589 -5 0 -12 -16 -16 -35z"/>
<path d="M2656 2410 c-302 -153 -556 -286 -565 -295 -12 -12 -16 -36 -16 -95
0 -66 3 -83 20 -98 11 -11 273 -147 583 -303 468 -236 564 -281 572 -269 5 8
10 54 10 103 0 75 -3 90 -20 105 -11 9 -222 114 -467 233 -246 119 -448 221
-450 225 -1 5 205 110 458 234 254 123 465 232 470 242 5 10 8 57 7 106 -3 85
-4 87 -28 89 -16 1 -230 -102 -574 -277z"/>
</g>
</svg>
