<?xml version="1.0" encoding="UTF-8" standalone="no"?>
<svg
   viewBox="-166.157 61.153 756.11761 376.08209"
   width="756.11761"
   height="376.08209"
   version="1.1"
   id="svg10"
   sodipodi:docname="logo.svg"
   inkscape:version="1.4.2 (f4327f4, 2025-05-13)"
   xmlns:inkscape="http://www.inkscape.org/namespaces/inkscape"
   xmlns:sodipodi="http://sodipodi.sourceforge.net/DTD/sodipodi-0.dtd"
   xmlns:xlink="http://www.w3.org/1999/xlink"
   xmlns="http://www.w3.org/2000/svg"
   xmlns:svg="http://www.w3.org/2000/svg"
   xmlns:bx="https://boxy-svg.com">
  <sodipodi:namedview
     id="namedview10"
     pagecolor="#505050"
     bordercolor="#eeeeee"
     borderopacity="1"
     inkscape:showpageshadow="0"
     inkscape:pageopacity="0"
     inkscape:pagecheckerboard="0"
     inkscape:deskcolor="#505050"
     inkscape:zoom="0.70446541"
     inkscape:cx="422.30604"
     inkscape:cy="297.38862"
     inkscape:window-width="1280"
     inkscape:window-height="1001"
     inkscape:window-x="-8"
     inkscape:window-y="-8"
     inkscape:window-maximized="1"
     inkscape:current-layer="svg10" />
  <defs
     id="defs8">
    <linearGradient
       id="linearGradient24">
      <stop
         offset="0"
         style="stop-color:#c74a4b;stop-opacity:1;"
         id="stop23" />
      <stop
         offset="1"
         style="stop-color: rgb(116, 38, 77);"
         id="stop24" />
    </linearGradient>
    <linearGradient
       id="gradient-2">
      <stop
         offset="0"
         style="stop-color: rgb(199, 74, 75);"
         id="stop1" />
      <stop
         offset="1"
         style="stop-color: rgb(116, 38, 77);"
         id="stop2" />
    </linearGradient>
    <linearGradient
       id="gradient-2-1"
       href="#gradient-2"
       gradientUnits="userSpaceOnUse"
       x1="259.52609"
       y1="163.23"
       x2="258.16577"
       y2="345.59177"
       gradientTransform="matrix(1.0983217,0,0,1.0983217,-9.76739,-50.383161)" />
    <linearGradient
       id="gradient-0"
       x1="250.004"
       x2="250.004"
       y1="4.822"
       y2="496.63199"
       gradientUnits="userSpaceOnUse">
      <stop
         offset="0"
         style="stop-color: rgb(199, 74, 75);"
         id="stop3" />
      <stop
         offset="1"
         style="stop-color: rgb(116, 38, 77);"
         id="stop4" />
    </linearGradient>
    <linearGradient
       id="gradient-1"
       x1="250.004"
       x2="250.004"
       y1="4.822"
       y2="496.63199"
       gradientUnits="userSpaceOnUse">
      <stop
         offset="0"
         style="stop-color: rgb(199, 74, 75);"
         id="stop5" />
      <stop
         offset="1"
         style="stop-color: rgb(116, 38, 77);"
         id="stop6" />
    </linearGradient>
    <linearGradient
       id="gradient-3"
       x1="250.004"
       x2="250.004"
       y1="4.822"
       y2="496.63199"
       gradientUnits="userSpaceOnUse">
      <stop
         offset="0"
         style="stop-color: rgb(199, 74, 75);"
         id="stop7" />
      <stop
         offset="1"
         style="stop-color: rgb(116, 38, 77);"
         id="stop8" />
    </linearGradient>
    <bx:export>
      <bx:file
         format="svg" />
    </bx:export>
    <linearGradient
       inkscape:collect="always"
       xlink:href="#linearGradient24"
       id="linearGradient23"
       x1="-7.8237324"
       y1="-185.6882"
       x2="-4.9847002"
       y2="357.98648"
       gradientUnits="userSpaceOnUse" />
    <linearGradient
       inkscape:collect="always"
       xlink:href="#linearGradient24"
       id="linearGradient25"
       gradientUnits="userSpaceOnUse"
       x1="-7.8237324"
       y1="-185.6882"
       x2="-4.9847002"
       y2="357.98648" />
    <linearGradient
       inkscape:collect="always"
       xlink:href="#gradient-2"
       id="linearGradient26"
       gradientUnits="userSpaceOnUse"
       gradientTransform="matrix(-1.0983217,0,0,1.0983217,454.57064,-50.383155)"
       x1="259.52609"
       y1="163.23"
       x2="258.16577"
       y2="345.59177" />
  </defs>
  <desc
     id="desc8">Created with Fabric.js 5.2.4</desc>
  <g
     transform="translate(292.67108,133.64262)"
     id="c8d1e893-bfeb-4878-aafe-901feb260345" />
  <g
     transform="matrix(0.9079533,0,0,1,211.90102,249.19066)"
     id="g8"
     style="fill:url(#linearGradient23);fill-opacity:1">
    <path
       style="opacity:1;fill:url(#linearGradient25);fill-opacity:1;fill-rule:nonzero;stroke:none;stroke-width:1;stroke-linecap:butt;stroke-linejoin:miter;stroke-miterlimit:4;stroke-dasharray:none;stroke-dashoffset:0"
       vector-effect="non-scaling-stroke"
       transform="translate(-363.24,-188.02)"
       d="m 0,0 c 1.2705917,-0.00406073 2.5411835,-0.00812145 3.850278,-0.01230523 3.52167,-0.01082954 7.043088,-0.0030403 10.564749,0.00783404 3.833246,0.00852283 7.666458,-3.8722e-4 11.499702,-0.00706416 6.716599,-0.0092931 13.433123,-0.0074389 20.14972,0.00173253 9.987784,0.01360079 19.97551,0.01003409 29.963298,0.0030414 17.837838,-0.01192947 35.675643,-0.00683932 53.513483,0.00527827 15.61009,0.01053217 31.22018,0.01507601 46.83028,0.01370449 1.03506,-8.403e-5 2.07012,-1.6806e-4 3.13655,-2.5464e-4 4.20155,-3.5224e-4 8.40311,-7.3625e-4 12.60466,-0.0011656 39.42163,-0.00396593 78.84325,0.008757 118.26487,0.02952656 35.03123,0.01836973 70.06244,0.02418235 105.09368,0.0187286 2.24931,-3.4643e-4 4.49862,-6.9253e-4 6.74794,-0.0010383 1.11201,-1.7099e-4 2.22402,-3.4199e-4 3.36973,-5.1817e-4 5.59761,-8.5353e-4 11.19522,-0.0016773 16.79283,-0.002469 1.1043,-1.5708e-4 2.2086,-3.1416e-4 3.34637,-4.76e-4 29.26345,-0.0039892 58.52691,0.0014843 87.79036,0.0099873 3.14843,9.0705e-4 6.29685,0.0018127 9.44527,0.0027152 2.08862,6.0111e-4 4.17724,0.0012097 6.26586,0.0018259 14.567,0.0042231 29.13398,0.0047989 43.70098,0.0028945 18.77148,-0.0024418 37.54294,0.0016195 56.31442,0.01721 9.92954,0.0080566 19.85905,0.01064712 29.78859,0.0053576 6.62993,-0.0029736 13.25983,0.0013138 19.88975,0.01154857 3.77919,0.005634 7.55831,0.00812 11.3375,0.001833 4.07038,-0.006689 8.14059,0.002055 12.21096,0.0123271 1.17384,-0.004396 2.34767,-0.008793 3.55708,-0.0133227 13.53779,0.0653627 27.4528,3.73920514 37.55857,13.35764174 8.88213,10.292324 15.75966,22.013376 15.77986,35.958443 0.004,0.998806 0.008,1.997612 0.0116,3.026685 -8.6e-4,1.090062 -0.002,2.180123 -0.003,3.303217 0.004,1.745552 0.004,1.745552 0.009,3.526368 0.007,3.226394 0.01,6.452756 0.0106,9.679158 0.002,3.481434 0.009,6.962857 0.0161,10.444285 0.0136,7.611836 0.0196,15.223666 0.024,22.835511 0.003,4.75589 0.007,9.51178 0.0115,14.26767 0.0122,13.17568 0.0225,26.35135 0.0259,39.52704 2.2e-4,0.84304 4.4e-4,1.68608 6.7e-4,2.55467 2.2e-4,0.84503 4.4e-4,1.69006 6.6e-4,2.5607 4.4e-4,1.71227 8.9e-4,3.42454 10e-4,5.13681 2.2e-4,0.84934 4.4e-4,1.69868 6.7e-4,2.57376 0.004,13.75237 0.0214,27.50468 0.0447,41.25703 0.0237,14.12989 0.0362,28.25976 0.0373,42.38967 9.2e-4,7.92909 0.007,15.85811 0.0248,23.78717 0.0154,6.75405 0.0205,13.50801 0.0123,20.26208 -0.004,3.44252 -0.003,6.88485 0.0111,10.32735 0.0127,3.74198 0.007,7.48349 -0.004,11.22547 0.008,1.07444 0.0161,2.14889 0.0244,3.25589 -0.10116,15.6124 -5.15865,29.51393 -16.05597,40.82759 -10.85405,10.14617 -24.09741,13.96011 -38.75094,13.8128 -1.28022,0.007 -2.56045,0.0145 -3.87947,0.022 -3.52556,0.0193 -7.05043,0.008 -10.57598,-0.009 -3.84608,-0.0128 -7.69206,0.004 -11.53812,0.0162 -6.73149,0.018 -13.46278,0.0176 -20.19428,0.005 -10.01004,-0.019 -20.01991,-0.009 -30.02995,0.006 -17.87972,0.0263 -35.75934,0.0241 -53.63907,0.01 -15.6463,-0.0126 -31.29258,-0.0159 -46.93889,-0.01 -1.55745,5.7e-4 -1.55745,5.7e-4 -3.14636,10e-4 -4.21489,0.002 -8.42978,0.003 -12.64468,0.005 -39.52895,0.0153 -79.05785,10e-4 -118.5868,-0.0255 -35.11267,-0.0237 -70.22524,-0.0216 -105.33791,0.002 -39.45867,0.0268 -78.91729,0.0374 -118.37597,0.0219 -4.20685,-0.002 -8.41371,-0.003 -12.62056,-0.005 -1.55373,-5.9e-4 -1.55373,-5.9e-4 -3.13885,-0.001 -15.63647,-0.006 -31.27292,9.6e-4 -46.90939,0.0136 -17.78,0.0143 -35.559903,0.0107 -53.339894,-0.0164 -9.94879,-0.0147 -19.897355,-0.0156 -29.846139,0.003 -6.647698,0.0112 -13.295217,0.004 -19.942888,-0.0175 -3.786066,-0.0119 -7.571689,-0.016 -11.357741,0.002 -4.0846647,0.0192 -8.1682471,-3.9e-4 -12.25289113,-0.0236 -1.75006557,0.0175 -1.75006557,0.0175 -3.53548607,0.0355 -14.3771378,-0.16329 -26.1085198,-6.33102 -36.5036748,-15.97718 -10.692989,-11.24781 -13.402365,-24.21626 -13.390442,-39.21045 -0.003,-1.16723 -0.0059,-2.33446 -0.009,-3.53705 -0.0072,-3.23168 -0.0099,-6.46332 -0.0106,-9.69501 -0.0019,-3.48895 -0.0094,-6.97789 -0.01613,-10.46684 -0.01356,-7.62637 -0.01961,-15.25274 -0.02401,-22.87912 -0.0028,-4.76647 -0.007,-9.53293 -0.0115,-14.29939 -0.01219,-13.20917 -0.02249,-26.41834 -0.02587,-39.62752 -2.19e-4,-0.84497 -4.39e-4,-1.68994 -6.65e-4,-2.56052 -3.28e-4,-1.27042 -3.28e-4,-1.27042 -6.62e-4,-2.5665 -4.43e-4,-1.71611 -8.9e-4,-3.43221 -0.0013,-5.14832 -2.22e-4,-0.85124 -4.43e-4,-1.70248 -6.71e-4,-2.57952 -0.0039,-13.78005 -0.02139,-27.56005 -0.04469,-41.34009 -0.02376,-14.16383 -0.03618,-28.32764 -0.03734,-42.49149 -9.14e-4,-7.94591 -0.0066,-15.89174 -0.02482,-23.837622 -0.01546,-6.768975 -0.02049,-13.53786 -0.01226,-20.306849 0.0039,-3.448848 0.0031,-6.897514 -0.01106,-10.34634 -0.07236,-21.260257 -0.03235,-38.719382 15.121075,-55.16987 C -26.908471,3.6795826 -14.789777,-0.0920944 0,0 Z m -28.764084,32.37473 c -3.138974,5.031077 -5.122828,9.858925 -5.131428,15.807778 -0.0038,0.996058 -0.0077,1.992115 -0.01164,3.018356 8.66e-4,1.097251 0.0017,2.194503 0.0026,3.325004 -0.003,1.163404 -0.0059,2.326808 -0.009,3.525466 -0.0072,3.234774 -0.0099,6.469516 -0.0106,9.704298 -0.0018,3.486884 -0.0094,6.973758 -0.01613,10.460636 -0.01359,7.628348 -0.01961,15.256691 -0.02401,22.885052 -0.0028,4.76424 -0.007,9.52847 -0.0115,14.29271 -0.01219,13.19276 -0.02249,26.38552 -0.02587,39.57828 -2.19e-4,0.84462 -4.39e-4,1.68923 -6.65e-4,2.55944 -2.18e-4,0.84664 -4.37e-4,1.69328 -6.62e-4,2.56557 -4.43e-4,1.7156 -8.9e-4,3.4312 -0.0013,5.14679 -2.22e-4,0.851 -4.43e-4,1.702 -6.71e-4,2.57878 -0.0039,13.77971 -0.02139,27.55937 -0.04469,41.33907 -0.02373,14.15016 -0.03618,28.30029 -0.03734,42.45047 -9.16e-4,7.94358 -0.0066,15.8871 -0.02482,23.83066 -0.01542,6.7666 -0.02051,13.53311 -0.01226,20.29973 0.0039,3.45035 0.003,6.90053 -0.01106,10.35086 -0.01271,3.74717 -0.0068,7.49387 0.0036,11.24103 -0.0081,1.08163 -0.01611,2.16327 -0.02441,3.27768 0.05901,9.08321 1.481298,17.57376 7.391906,24.76234 6.78336,6.61235 12.562736,11.12107 22.2622492,11.1288 1.0743228,0.003 2.1486455,0.007 3.2555235,0.01 1.18187082,-10e-4 2.3637416,-0.003 3.5814267,-0.004 1.2594578,0.002 2.5189156,0.005 3.8165388,0.007 3.5136802,0.006 7.0273378,0.007 10.5410228,0.006 3.815988,1.7e-4 7.631968,0.006 11.447952,0.0112 7.576563,0.009 15.153121,0.0132 22.72969,0.0155 9.071947,0.003 18.143886,0.0117 27.215828,0.0204 21.928643,0.0208 43.857283,0.0313 65.785933,0.0401 10.37075,0.004 20.7415,0.009 31.11224,0.0147 35.48994,0.0179 70.97988,0.0329 106.46981,0.0403 2.2285,4.7e-4 4.457,9.5e-4 6.6855,10e-4 1.10515,2.3e-4 2.2103,4.7e-4 3.34894,7.1e-4 5.59938,10e-4 11.19875,0.002 16.79813,0.004 1.11122,2.4e-4 2.22243,4.8e-4 3.36733,7.2e-4 36.03723,0.008 72.07443,0.0313 108.11165,0.0638 38.0875,0.0343 76.17497,0.054 114.26248,0.0573 4.17971,4.2e-4 8.35943,9e-4 12.53914,10e-4 1.02919,1.2e-4 2.05838,2.4e-4 3.11875,3.7e-4 16.57489,0.002 33.14974,0.018 49.72461,0.0385 16.65494,0.0202 33.30984,0.0257 49.96479,0.0162 9.89825,-0.005 19.79635,7e-4 29.69457,0.0225 6.61052,0.0135 13.22093,0.0125 19.83144,-4e-4 3.76744,-0.007 7.53458,-0.008 11.30199,0.01 4.05963,0.0182 8.11858,0.006 12.17822,-0.0102 1.75174,0.0153 1.75174,0.0153 3.53886,0.031 9.51687,-0.0808 17.72975,-2.16995 24.78804,-8.84627 8.61223,-9.47125 9.98456,-21.32957 9.92176,-33.70984 0.009,-1.7239 0.009,-1.7239 0.0185,-3.48262 0.0165,-3.81811 0.0119,-7.63589 0.007,-11.45403 0.006,-2.75074 0.0158,-5.50147 0.0257,-8.25221 0.021,-6.676 0.0256,-13.35192 0.0238,-20.02795 -10e-4,-5.42916 0.003,-10.85829 0.01,-16.28745 0.002,-1.56829 0.004,-3.13658 0.006,-4.70487 0.001,-0.78074 0.002,-1.56149 0.003,-2.36589 0.0189,-14.73786 0.0179,-29.47567 0.011,-44.21353 -0.006,-13.46421 0.0153,-26.92824 0.0484,-40.39241 0.0338,-13.84989 0.0489,-27.69968 0.0443,-41.54961 -0.002,-7.76582 0.003,-15.53146 0.0279,-23.297248 0.0211,-6.609382 0.0245,-13.218492 0.006,-19.827885 -0.009,-3.367861 -0.008,-6.734802 0.0104,-10.102689 0.0182,-3.660895 0.005,-7.320452 -0.0149,-10.981307 0.0125,-1.050216 0.025,-2.100433 0.0379,-3.182475 -0.12257,-10.334237 -3.55234,-19.654922 -10.78049,-27.164082 -9.32656,-8.357066 -19.41258,-8.983542 -31.49405,-8.943656 -1.2545,-0.0038 -2.509,-0.0076 -3.80151,-0.01153 -3.4765,-0.01025 -6.95289,-0.0081 -10.4294,-0.0039 -3.78438,0.0024 -7.56874,-0.0068 -11.35311,-0.01448 -6.63088,-0.01184 -13.26173,-0.01621 -19.89261,-0.01568 -9.86051,7.94e-4 -19.72097,-0.0098 -29.58147,-0.02242 -19.66158,-0.02473 -39.32316,-0.03352 -58.98475,-0.03854 -1.01804,-2.61e-4 -2.03608,-5.23e-4 -3.08497,-7.92e-4 -1.02008,-2.6e-4 -2.04016,-5.2e-4 -3.09115,-7.88e-4 -11.30501,-0.0031 -22.61002,-0.0096 -33.91502,-0.01621 -34.14307,-0.01965 -68.28613,-0.03605 -102.42921,-0.03888 -1.6379,-1.41e-4 -1.6379,-1.41e-4 -3.3089,-2.85e-4 -4.42514,-3.78e-4 -8.85029,-7.42e-4 -13.27544,-0.0011 -3.33065,-2.71e-4 -6.6613,-5.48e-4 -9.99195,-8.25e-4 -1.10058,-8.8e-5 -2.20115,-1.76e-4 -3.33507,-2.67e-4 -34.58821,-0.0029 -69.17636,-0.02501 -103.76454,-0.06126 -38.8558,-0.04072 -77.71155,-0.06442 -116.56737,-0.06472 -4.1426,-9.7e-5 -8.2852,-2.64e-4 -12.4278,-4.8e-4 -1.53003,-6.6e-5 -1.53003,-6.6e-5 -3.09097,-1.34e-4 -16.41895,-0.0011 -32.83783,-0.01853 -49.25676,-0.04169 -16.49866,-0.02283 -32.997255,-0.02707 -49.495932,-0.01245 -9.802349,0.0082 -19.604459,0.0024 -29.40678,-0.02318 -6.548966,-0.01574 -13.097763,-0.01329 -19.646725,0.0039 -3.730602,0.0093 -7.460746,0.01074 -11.191312,-0.01 -4.0235,-0.02214 -8.0459247,-0.0054 -12.0694339,0.01495 -1.1515144,-0.01256 -2.3030289,-0.02513 -3.4894378,-0.03807 -12.6960073,0.13761 -22.6357723,4.641219 -30.5032333,14.658896 z"
       stroke-linecap="round"
       id="path8" />
  </g>
  <path
     d="M 410.54225,134.99092 243.261,227.64717 v 43.09375 l 167.28125,92.65625 V 324.61006 C 293.03983,263.54704 293.1547,263.66247 266.6028,248.33272 314.651,224.12355 362.92691,198.34785 410.54225,172.48506 Z"
     style="font-size:335.098px;font-family:'JetBrains Mono';white-space:pre;fill:url(#gradient-2-1);stroke:#c74a4b;stroke-width:0px"
     id="path26"
     sodipodi:nodetypes="cccccccc" />
  <path
     d="m 34.261,134.99092 167.28125,92.65625 v 43.09375 L 34.261,363.39717 V 324.61006 C 151.76342,263.54704 151.64855,263.66247 178.20045,248.33272 130.15225,224.12355 81.87634,198.34785 34.261,172.48506 Z"
     style="font-size:335.098px;font-family:'JetBrains Mono';white-space:pre;fill:url(#linearGradient26);stroke:#c74a4b;stroke-width:0px"
     id="path26-8"
     sodipodi:nodetypes="cccccccc" />
</svg>
